{
  "accessors": [
    {
      "bufferView": 2,
      "componentType": 5126,
      "count": 65532,
      "max": [
        697.2799072265625,
        697.9631958007813,
        466.662841796875
      ],
      "min": [
        -699.9999389648438,
        -700.0,
        213.96200561523438
      ],
      "type": "VEC3"
    },
    {
      "bufferView": 2,
      "byteOffset": 786384,
      "componentType": 5126,
      "count": 65532,
      "max": [
        0.9790881872177124,
        0.9939040541648865,
        0.9999982118606567
      ],
      "min": [
        -1.0,
        -0.9717605710029602,
        -0.4262084364891052
      ],
      "type": "VEC3"
    },
    {
      "bufferView": 1,
      "componentType": 5126,
      "count": 65532,
      "max": [
        0.9999998211860657,
        0.9999999403953552
      ],
      "min": [
        1.1920928955078125e-07,
        0.0
      ],
      "type": "VEC2"
    },
    {
      "bufferView": 0,
      "componentType": 5125,
      "count": 285360,
      "type": "SCALAR"
    },
    {
      "bufferView": 2,
      "byteOffset": 1572768,
      "componentType": 5126,
      "count": 65532,
      "max": [
        697.2799682617188,
        697.9632568359375,
        453.5248107910156
      ],
      "min": [
        -700.0,
        -699.9999389648438,
        166.90318298339844
      ],
      "type": "VEC3"
    },
    {
      "bufferView": 2,
      "byteOffset": 2359152,
      "componentType": 5126,
      "count": 65532,
      "max": [
        0.9860478639602661,
        0.9625926613807678,
        0.9999992251396179
      ],
      "min": [
        -0.9709877371788025,
        -0.9428575038909912,
        -0.6539040803909302
      ],
      "type": "VEC3"
    },
    {
      "bufferView": 1,
      "byteOffset": 524256,
      "componentType": 5126,
      "count": 65532,
      "max": [
        0.9999998807907104,
        0.9999999403953552
      ],
      "min": [
        1.1920928955078125e-07,
        5.960464477539063e-08
      ],
      "type": "VEC2"
    },
    {
      "bufferView": 0,
      "byteOffset": 1141440,
      "componentType": 5125,
      "count": 283962,
      "type": "SCALAR"
    },
    {
      "bufferView": 2,
      "byteOffset": 3145536,
      "componentType": 5126,
      "count": 65532,
      "max": [
        697.2799682617188,
        697.9631958007813,
        470.10760498046875
      ],
      "min": [
        -699.9999389648438,
        -699.9999389648438,
        169.2950439453125
      ],
      "type": "VEC3"
    },
    {
      "bufferView": 2,
      "byteOffset": 3931920,
      "componentType": 5126,
      "count": 65532,
      "max": [
        0.9907718300819397,
        0.9523411989212036,
        0.9999985694885254
      ],
      "min": [
        -0.9767755270004272,
        -0.9797497391700745,
        -0.33839887380599976
      ],
      "type": "VEC3"
    },
    {
      "bufferView": 1,
      "byteOffset": 1048512,
      "componentType": 5126,
      "count": 65532,
      "max": [
        1.0,
        0.9999999403953552
      ],
      "min": [
        1.7881393432617188e-07,
        1.1920928955078125e-07
      ],
      "type": "VEC2"
    },
    {
      "bufferView": 0,
      "byteOffset": 2277288,
      "componentType": 5125,
      "count": 289716,
      "type": "SCALAR"
    },
    {
      "bufferView": 2,
      "byteOffset": 4718304,
      "componentType": 5126,
      "count": 65532,
      "max": [
        697.2799072265625,
        697.9631958007813,
        464.5800476074219
      ],
      "min": [
        -699.9999389648438,
        -700.0,
        181.55184936523438
      ],
      "type": "VEC3"
    },
    {
      "bufferView": 2,
      "byteOffset": 5504688,
      "componentType": 5126,
      "count": 65532,
      "max": [
        0.9466404318809509,
        0.9488076567649841,
        0.9999994039535522
      ],
      "min": [
        -0.9690349698066711,
        -0.9930472373962402,
        -0.3061579167842865
      ],
      "type": "VEC3"
    },
    {
      "bufferView": 1,
      "byteOffset": 1572768,
      "componentType": 5126,
      "count": 65532,
      "max": [
        0.9999999403953552,
        1.0
      ],
      "min": [
        1.1920928955078125e-07,
        5.960464477539063e-08
      ],
      "type": "VEC2"
    },
    {
      "bufferView": 0,
      "byteOffset": 3436152,
      "componentType": 5125,
      "count": 290823,
      "type": "SCALAR"
    },
    {
      "bufferView": 2,
      "byteOffset": 6291072,
      "componentType": 5126,
      "count": 65532,
      "max": [
        697.2799682617188,
        697.9632568359375,
        467.7843933105469
      ],
      "min": [
        -699.9999389648438,
        -700.0,
        174.91415405273438
      ],
      "type": "VEC3"
    },
    {
      "bufferView": 2,
      "byteOffset": 7077456,
      "componentType": 5126,
      "count": 65532,
      "max": [
        0.9711720943450928,
        0.95025235414505,
        0.9999995827674866
      ],
      "min": [
        -0.9748148918151855,
        -0.9659112691879272,
        -0.6236422061920166
      ],
      "type": "VEC3"
    },
    {
      "bufferView": 1,
      "byteOffset": 2097024,
      "componentType": 5126,
      "count": 65532,
      "max": [
        0.9999999403953552,
        1.0
      ],
      "min": [
        5.960464477539063e-08,
        1.1920928955078125e-07
      ],
      "type": "VEC2"
    },
    {
      "bufferView": 0,
      "byteOffset": 4599444,
      "componentType": 5125,
      "count": 290667,
      "type": "SCALAR"
    },
    {
      "bufferView": 2,
      "byteOffset": 7863840,
      "componentType": 5126,
      "count": 65532,
      "max": [
        697.2799682617188,
        697.9632568359375,
        469.1119079589844
      ],
      "min": [
        -700.0,
        -699.9999389648438,
        192.08056640625
      ],
      "type": "VEC3"
    },
    {
      "bufferView": 2,
      "byteOffset": 8650224,
      "componentType": 5126,
      "count": 65532,
      "max": [
        0.9811075329780579,
        0.9563544988632202,
        0.9999962449073792
      ],
      "min": [
        -0.9651556611061096,
        -0.990304708480835,
        -0.2814501225948334
      ],
      "type": "VEC3"
    },
    {
      "bufferView": 1,
      "byteOffset": 2621280,
      "componentType": 5126,
      "count": 65532,
      "max": [
        1.0,
        1.0
      ],
      "min": [
        0.0,
        1.7881393432617188e-07
      ],
      "type": "VEC2"
    },
    {
      "bufferView": 0,
      "byteOffset": 5762112,
      "componentType": 5125,
      "count": 287706,
      "type": "SCALAR"
    },
    {
      "bufferView": 2,
      "byteOffset": 9436608,
      "componentType": 5126,
      "count": 65532,
      "max": [
        697.2799682617188,
        697.9631958007813,
        469.5238952636719
      ],
      "min": [
        -699.9999389648438,
        -700.0,
        168.31082153320313
      ],
      "type": "VEC3"
    },
    {
      "bufferView": 2,
      "byteOffset": 10222992,
      "componentType": 5126,
      "count": 65532,
      "max": [
        0.9917397499084473,
        0.9554221630096436,
        0.9999955296516418
      ],
      "min": [
        -1.0,
        -0.9990912079811096,
        -0.4874476194381714
      ],
      "type": "VEC3"
    },
    {
      "bufferView": 1,
      "byteOffset": 3145536,
      "componentType": 5126,
      "count": 65532,
      "max": [
        1.0,
        1.0
      ],
      "min": [
        5.960464477539063e-08,
        5.960464477539063e-08
      ],
      "type": "VEC2"
    },
    {
      "bufferView": 0,
      "byteOffset": 6912936,
      "componentType": 5125,
      "count": 272181,
      "type": "SCALAR"
    },
    {
      "bufferView": 2,
      "byteOffset": 11009376,
      "componentType": 5126,
      "count": 65532,
      "max": [
        697.2799682617188,
        697.9632568359375,
        469.99310302734375
      ],
      "min": [
        -700.0,
        -700.0,
        166.90318298339844
      ],
      "type": "VEC3"
    },
    {
      "bufferView": 2,
      "byteOffset": 11795760,
      "componentType": 5126,
      "count": 65532,
      "max": [
        0.9907718300819397,
        0.9563544988632202,
        0.9999992251396179
      ],
      "min": [
        -0.9767755270004272,
        -0.9780187606811523,
        -0.460374653339386
      ],
      "type": "VEC3"
    },
    {
      "bufferView": 1,
      "byteOffset": 3669792,
      "componentType": 5126,
      "count": 65532,
      "max": [
        1.0,
        1.0
      ],
      "min": [
        5.960464477539063e-08,
        5.960464477539063e-08
      ],
      "type": "VEC2"
    },
    {
      "bufferView": 0,
      "byteOffset": 8001660,
      "componentType": 5125,
      "count": 230835,
      "type": "SCALAR"
    },
    {
      "bufferView": 2,
      "byteOffset": 12582144,
      "componentType": 5126,
      "count": 65533,
      "max": [
        697.2799682617188,
        697.9632568359375,
        468.9288635253906
      ],
      "min": [
        -700.0,
        -699.9999389648438,
        171.13755798339844
      ],
      "type": "VEC3"
    },
    {
      "bufferView": 2,
      "byteOffset": 13368540,
      "componentType": 5126,
      "count": 65533,
      "max": [
        0.9736056923866272,
        0.9812439680099487,
        0.9999976754188538
      ],
      "min": [
        -0.9651089906692505,
        -0.9726104736328125,
        -0.6047341227531433
      ],
      "type": "VEC3"
    },
    {
      "bufferView": 1,
      "byteOffset": 4194048,
      "componentType": 5126,
      "count": 65533,
      "max": [
        1.0,
        1.0
      ],
      "min": [
        5.960464477539063e-08,
        5.960464477539063e-08
      ],
      "type": "VEC2"
    },
    {
      "bufferView": 0,
      "byteOffset": 8925000,
      "componentType": 5125,
      "count": 150324,
      "type": "SCALAR"
    },
    {
      "bufferView": 2,
      "byteOffset": 14154936,
      "componentType": 5126,
      "count": 11003,
      "max": [
        697.2799682617188,
        697.9632568359375,
        466.4339599609375
      ],
      "min": [
        -700.0,
        -699.9999389648438,
        181.73495483398438
      ],
      "type": "VEC3"
    },
    {
      "bufferView": 2,
      "byteOffset": 14286972,
      "componentType": 5126,
      "count": 11003,
      "max": [
        0.9466404318809509,
        0.9415665864944458,
        0.9999973177909851
      ],
      "min": [
        -0.9569815993309021,
        -0.9499873518943787,
        -0.266897976398468
      ],
      "type": "VEC3"
    },
    {
      "bufferView": 1,
      "byteOffset": 4718312,
      "componentType": 5126,
      "count": 11003,
      "max": [
        1.0,
        1.0
      ],
      "min": [
        0.0,
        1.1920928955078125e-07
      ],
      "type": "VEC2"
    },
    {
      "bufferView": 0,
      "byteOffset": 9526296,
      "componentType": 5125,
      "count": 13608,
      "type": "SCALAR"
    }
  ],
  "asset": {
    "extras": {
      "author": "artfromheath (https://sketchfab.com/artfromheath)",
      "license": "CC-BY-4.0 (http://creativecommons.org/licenses/by/4.0/)",
      "source": "https://sketchfab.com/3d-models/crater-city-terrain-0bdacc08da824abda64701698dd5cdd1",
      "title": "Crater City - Terrain"
    },
    "generator": "Sketchfab-12.66.0",
    "version": "2.0"
  },
  "bufferViews": [
    {
      "buffer": 0,
      "byteLength": 9580728,
      "name": "floatBufferViews",
      "target": 34963
    },
    {
      "buffer": 0,
      "byteLength": 4806336,
      "byteOffset": 9580728,
      "byteStride": 8,
      "name": "floatBufferViews",
      "target": 34962
    },
    {
      "buffer": 0,
      "byteLength": 14419008,
      "byteOffset": 14387064,
      "byteStride": 12,
      "name": "floatBufferViews",
      "target": 34962
    }
  ],
  "buffers": [
    {
      "byteLength": 28806072,
      "uri": "scene.bin"
    }
  ],
  "images": [
    {
      "uri": "textures/Scene_-_Root_baseColor.jpeg"
    },
    {
      "uri": "textures/Scene_-_Root_metallicRoughness.png"
    }
  ],
  "materials": [
    {
      "doubleSided": true,
      "name": "Scene_-_Root",
      "pbrMetallicRoughness": {
        "baseColorTexture": {
          "index": 0
        },
        "metallicFactor": 0.0,
        "metallicRoughnessTexture": {
          "index": 1
        }
      }
    }
  ],
  "meshes": [
    {
      "name": "Plane001__0",
      "primitives": [
        {
          "attributes": {
            "NORMAL": 1,
            "POSITION": 0,
            "TEXCOORD_0": 2
          },
          "indices": 3,
          "material": 0,
          "mode": 4
        }
      ]
    },
    {
      "name": "Plane001__0",
      "primitives": [
        {
          "attributes": {
            "NORMAL": 5,
            "POSITION": 4,
            "TEXCOORD_0": 6
          },
          "indices": 7,
          "material": 0,
          "mode": 4
        }
      ]
    },
    {
      "name": "Plane001__0",
      "primitives": [
        {
          "attributes": {
            "NORMAL": 9,
            "POSITION": 8,
            "TEXCOORD_0": 10
          },
          "indices": 11,
          "material": 0,
          "mode": 4
        }
      ]
    },
    {
      "name": "Plane001__0",
      "primitives": [
        {
          "attributes": {
            "NORMAL": 13,
            "POSITION": 12,
            "TEXCOORD_0": 14
          },
          "indices": 15,
          "material": 0,
          "mode": 4
        }
      ]
    },
    {
      "name": "Plane001__0",
      "primitives": [
        {
          "attributes": {
            "NORMAL": 17,
            "POSITION": 16,
            "TEXCOORD_0": 18
          },
          "indices": 19,
          "material": 0,
          "mode": 4
        }
      ]
    },
    {
      "name": "Plane001__0",
      "primitives": [
        {
          "attributes": {
            "NORMAL": 21,
            "POSITION": 20,
            "TEXCOORD_0": 22
          },
          "indices": 23,
          "material": 0,
          "mode": 4
        }
      ]
    },
    {
      "name": "Plane001__0",
      "primitives": [
        {
          "attributes": {
            "NORMAL": 25,
            "POSITION": 24,
            "TEXCOORD_0": 26
          },
          "indices": 27,
          "material": 0,
          "mode": 4
        }
      ]
    },
    {
      "name": "Plane001__0",
      "primitives": [
        {
          "attributes": {
            "NORMAL": 29,
            "POSITION": 28,
            "TEXCOORD_0": 30
          },
          "indices": 31,
          "material": 0,
          "mode": 4
        }
      ]
    },
    {
      "name": "Plane001__0",
      "primitives": [
        {
          "attributes": {
            "NORMAL": 33,
            "POSITION": 32,
            "TEXCOORD_0": 34
          },
          "indices": 35,
          "material": 0,
          "mode": 4
        }
      ]
    },
    {
      "name": "Plane001__0",
      "primitives": [
        {
          "attributes": {
            "NORMAL": 37,
            "POSITION": 36,
            "TEXCOORD_0": 38
          },
          "indices": 39,
          "material": 0,
          "mode": 4
        }
      ]
    }
  ],
  "nodes": [
    {
      "children": [
        1
      ],
      "matrix": [
        1.0,
        0.0,
        0.0,
        0.0,
        0.0,
        2.220446049250313e-16,
        -1.0,
        0.0,
        0.0,
        1.0,
        2.220446049250313e-16,
        0.0,
        0.0,
        0.0,
        0.0,
        1.0
      ],
      "name": "Sketchfab_model"
    },
    {
      "children": [
        2
      ],
      "matrix": [
        1.0,
        0.0,
        0.0,
        0.0,
        0.0,
        0.0,
        1.0,
        0.0,
        0.0,
        -1.0,
        0.0,
        0.0,
        0.0,
        0.0,
        0.0,
        1.0
      ],
      "name": "60bbf29826604632a1ea3a3cd6417b16.fbx"
    },
    {
      "children": [
        3
      ],
      "name": "RootNode"
    },
    {
      "children": [
        4
      ],
      "matrix": [
        0.10000000149011612,
        0.0,
        0.0,
        0.0,
        0.0,
        2.2204460823375376e-17,
        -0.10000000149011612,
        0.0,
        0.0,
        0.10000000149011612,
        2.2204460823375376e-17,
        0.0,
        0.3147163391113281,
        0.07981705665588379,
        0.1101369857788086,
        1.0
      ],
      "name": "Plane001"
    },
    {
      "children": [
        5,
        6,
        7,
        8,
        9,
        10,
        11,
        12,
        13,
        14
      ],
      "matrix": [
        1.0,
        0.0,
        -0.0,
        0.0,
        0.0,
        1.0,
        0.0,
        0.0,
        0.0,
        0.0,
        1.0,
        0.0,
        0.0,
        7.353177352342755e-06,
        -168.22108459472656,
        1.0
      ],
      "name": "Object_4"
    },
    {
      "mesh": 0,
      "name": "Plane001__0"
    },
    {
      "mesh": 1,
      "name": "Plane001__0"
    },
    {
      "mesh": 2,
      "name": "Plane001__0"
    },
    {
      "mesh": 3,
      "name": "Plane001__0"
    },
    {
      "mesh": 4,
      "name": "Plane001__0"
    },
    {
      "mesh": 5,
      "name": "Plane001__0"
    },
    {
      "mesh": 6,
      "name": "Plane001__0"
    },
    {
      "mesh": 7,
      "name": "Plane001__0"
    },
    {
      "mesh": 8,
      "name": "Plane001__0"
    },
    {
      "mesh": 9,
      "name": "Plane001__0"
    }
  ],
  "samplers": [
    {
      "magFilter": 9729,
      "minFilter": 9987,
      "wrapS": 10497,
      "wrapT": 10497
    }
  ],
  "scene": 0,
  "scenes": [
    {
      "name": "Sketchfab_Scene",
      "nodes": [
        0
      ]
    }
  ],
  "textures": [
    {
      "sampler": 0,
      "source": 0
    },
    {
      "sampler": 0,
      "source": 1
    }
  ]
}
